<?xml version="1.0" encoding="UTF-8"?>
<svg xmlns:xodm="http://www.corel.com/coreldraw/odm/2003" xmlns="http://www.w3.org/2000/svg" xmlns:xlink="http://www.w3.org/1999/xlink" version="1.1" id="Layer_1" x="0px" y="0px" viewBox="0 0 2500 292" style="enable-background:new 0 0 2500 292;" xml:space="preserve">
<style type="text/css">
	.st0{fill:#3396FF;}
</style>
<g id="Layer_x0020_1">
	<g id="_2806267075200">
		<path class="st0" d="M100,56.5c78.1-76.1,203.6-76.1,281.7,0l9.3,9.3c4.1,4.1,4.1,10.3,0,13.4L359.1,110c-2.1,2.1-5.1,2.1-7.2,0    l-13.4-12.3c-54.5-53.5-141.9-53.5-196.4,0L128.8,111c-2.1,2.1-5.1,2.1-7.2,0L89.7,80.2c-4.1-4.1-4.1-10.3,0-13.4L100,56.5z     M447.5,121.3l28.8,27.8c4.1,4.1,4.1,10.3,0,13.4L347.8,287.9c-4.1,4.1-10.3,4.1-14.4,0l-91.5-89.5c-1-1-2.1-1-3.1,0l-91.5,89.5    c-4.1,4.1-10.3,4.1-14.4,0L4.4,162.5c-4.1-4.1-4.1-10.3,0-13.4l28.8-27.8c4.1-4.1,10.3-4.1,14.4,0l91.5,89.5c1,1,2.1,1,3.1,0    l91.5-89.5c4.1-4.1,10.3-4.1,14.4,0l91.5,89.5c1,1,2.1,1,3.1,0l91.5-89.5c4.1-4.1,10.3-4.1,14.4,0l0,0H447.5z"></path>
		<g>
			<path d="M650.1,248.8L684,111c2.1-7.2,4.1-15.4,6.2-28.8c2.1,12.3,4.1,20.6,5.1,28.8l29.8,137.8h61.7l51.4-203.6h-47.3     l-28.8,125.4c-3.1,12.3-5.1,21.6-7.2,36c-2.1-13.4-5.1-23.6-7.2-36L720,45.2h-61.7l-29.8,125.4c-3.1,12.3-5.1,21.6-7.2,36     c-2.1-14.4-4.1-23.6-7.2-36L586.3,45.2H537l51.4,203.6H648H650.1z"></path>
			<path d="M874.2,254c23.6,0,38-9.3,45.2-23.6c-1,4.1-1,9.3-1,13.4v5.1h39.1v-84.3c0-40.1-18.5-63.7-62.7-63.7     c-39.1,0-63.7,21.6-66.8,51.4h43.2c1-13.4,10.3-20.6,24.7-20.6c13.4,0,20.6,7.2,20.6,16.5c0,6.2-4.1,10.3-15.4,11.3l-20.6,2.1     c-29.8,4.1-56.5,14.4-56.5,47.3c0,28.8,24.7,45.2,49.4,45.2l0,0H874.2z M887.6,224.1c-11.3,0-19.5-6.2-19.5-17.5     c0-10.3,9.3-16.5,24.7-18.5l10.3-2.1c8.2-2.1,13.4-3.1,16.5-6.2v13.4c0,18.5-13.4,29.8-29.8,29.8L887.6,224.1z"></path>
			<polygon points="978,44.2 978,248.8 1020.2,248.8 1020.2,44.2    "></polygon>
			<polygon points="1043.9,44.2 1043.9,248.8 1087,248.8 1087,44.2    "></polygon>
			<path d="M1178.5,254c40.1,0,65.8-22.6,68.9-52.4h-42.2c-2.1,13.4-13.4,20.6-26.7,20.6c-18.5,0-30.8-14.4-31.9-35h101.8v-8.2     c0-47.3-25.7-78.1-70.9-78.1c-43.2,0-73,29.8-73,76.1C1104.5,226.2,1135.4,254,1178.5,254L1178.5,254z M1146.7,159.4     c2.1-16.5,13.4-27.8,30.8-27.8c16.5,0,27.8,11.3,27.8,27.8H1146.7z"></path>
			<path d="M1337.9,250.9c9.3,0,18.5-1,22.6-3.1v-31.9c-3.1,1-7.2,1-10.3,1c-15.4,0-20.6-9.3-20.6-22.6v-55.5h33.9v-32.9h-33.9V55.5     h-42.2v50.4h-30.8v32.9h30.8v61.7c0,33.9,16.5,51.4,50.4,51.4V250.9z"></path>
			<path d="M1480.8,254c57.6,0,92.5-33.9,96.6-82.3h-45.2c-3.1,26.7-22.6,44.2-49.4,44.2c-31.9,0-55.5-26.7-55.5-70.9     c0-43.2,23.6-67.9,55.5-67.9c27.8,0,43.2,16.5,46.3,42.2h47.3c-5.1-50.4-42.2-79.2-93.6-79.2c-58.6,0-103.8,40.1-103.8,105.9     c0,68.9,39.1,108,100.8,108H1480.8z"></path>
			<path d="M1669,254c44.2,0,75.1-27.8,75.1-76.1c0-47.3-30.8-77.1-75.1-77.1c-43.2,0-75.1,29.8-75.1,77.1     C1593.9,226.2,1624.8,254,1669,254z M1669,221.1c-19.5,0-31.9-16.5-31.9-43.2c0-27.8,13.4-44.2,31.9-44.2     c19.5,0,31.9,15.4,31.9,44.2C1700.9,205.6,1688.5,221.1,1669,221.1z"></path>
			<path d="M1803.7,248.8v-83.3c0-17.5,11.3-30.8,26.7-30.8c14.4,0,23.6,11.3,23.6,29.8v84.3h42.2v-90.5c0-33.9-18.5-57.6-50.4-57.6     c-22.6,0-36,10.3-43.2,23.6c1-5.1,1-9.3,1-13.4v-5.1h-42.2v142.9H1803.7z"></path>
			<path d="M1963,248.8v-83.3c0-17.5,11.3-30.8,26.7-30.8c14.4,0,23.6,11.3,23.6,29.8v84.3h42.2v-90.5c0-33.9-18.5-57.6-50.4-57.6     c-22.6,0-36,10.3-43.2,23.6c1-5.1,1-9.3,1-13.4v-5.1h-42.2v142.9H1963z"></path>
			<path d="M2147.1,254c40.1,0,65.8-22.6,68.9-52.4h-42.2c-2.1,13.4-13.4,20.6-26.7,20.6c-18.5,0-30.8-14.4-31.9-35H2217v-8.2     c0-47.3-25.7-78.1-70.9-78.1c-43.2,0-73,29.8-73,76.1C2073,226.2,2103.9,254,2147.1,254L2147.1,254z M2115.2,159.4     c2.1-16.5,13.4-27.8,30.8-27.8c16.5,0,27.8,11.3,27.8,27.8H2115.2z"></path>
			<path d="M2307.5,254c44.2,0,68.9-24.7,73-61.7h-42.2c-1,15.4-10.3,28.8-29.8,28.8s-31.9-17.5-31.9-44.2     c0-28.8,15.4-43.2,32.9-43.2c17.5,0,26.7,12.3,27.8,27.8h42.2c-3.1-35-26.7-60.7-69.9-60.7c-42.2,0-76.1,27.8-76.1,76.1     C2233.4,224.1,2261.2,254,2307.5,254z"></path>
			<path d="M2472,250.9c9.3,0,18.5-1,22.6-3.1v-31.9c-3.1,1-7.2,1-10.3,1c-15.4,0-20.6-9.3-20.6-22.6v-55.5h33.9v-32.9h-33.9V55.5     h-42.2v50.4h-30.8v32.9h30.8v61.7c0,33.9,16.5,51.4,50.4,51.4V250.9z"></path>
		</g>
	</g>
</g>
</svg>
